<?xml version="1.0" encoding="UTF-8"?>
<svg version="1.1" xmlns="http://www.w3.org/2000/svg" width="300" height="180">
<path d="M0 0 C0.57550598 0.4248317 1.15101196 0.84966339 1.74395752 1.28736877 C7.23564703 5.25716369 13.53893668 4.49208756 20.06427002 4.45143127 C22.54607501 4.45143127 25.02791885 4.46400857 27.50958252 4.49049377 C29.14564453 4.4820343 29.14564453 4.4820343 30.8147583 4.47340393 C36.96568084 5.16837455 40.95035114 8.20175364 44.74786377 12.84205627 C46.7197897 16.12644438 46.80623895 19.03504584 46.93927002 22.82643127 C48.67177002 22.95018127 48.67177002 22.95018127 50.43927002 23.07643127 C55.08747172 23.60110905 59.58300493 24.55519318 64.12677002 25.63893127 C65.14190674 25.86854553 65.14190674 25.86854553 66.17755127 26.10279846 C72.22996476 27.60106749 76.48104632 29.89527016 80.25177002 34.88893127 C85.69169176 44.35842467 81.86581313 54.42017954 79.43927002 64.32643127 C79.10120544 65.73508771 78.76395862 67.14394065 78.42755127 68.55299377 C77.60754901 71.97979207 76.77648085 75.40379124 75.93927002 78.82643127 C73.62927002 78.82643127 71.31927002 78.82643127 68.93927002 78.82643127 C70.07685057 71.0579536 71.64777291 63.47444018 73.61798096 55.87940979 C75.02022192 50.25387884 75.75638988 45.18699976 73.81427002 39.57643127 C69.99107151 33.96907346 63.46142224 33.04623235 57.18927002 31.70143127 C49.14872948 29.931161 49.14872948 29.931161 46.93927002 28.82643127 C46.60927002 45.32643127 46.27927002 61.82643127 45.93927002 78.82643127 C43.95927002 78.82643127 41.97927002 78.82643127 39.93927002 78.82643127 C39.93340378 78.09837784 39.92753754 77.3703244 39.92149353 76.62020874 C39.86351918 69.74912569 39.79141526 62.87831947 39.70355511 56.00755787 C39.65888338 52.47544461 39.61962064 48.94344584 39.59283447 45.41114807 C39.56177922 41.34745806 39.50699168 37.28438586 39.45098877 33.22096252 C39.44140388 31.3238427 39.44140388 31.3238427 39.43162537 29.38839722 C39.41183121 28.20755051 39.39203705 27.0267038 39.37164307 25.81007385 C39.36054001 24.77304825 39.34943695 23.73602264 39.33799744 22.66757202 C38.87614065 19.37660162 37.88700657 17.49863336 35.93927002 14.82643127 C30.73736526 11.13708036 25.67843985 11.46885094 19.56427002 11.63893127 C18.63743408 11.65246643 17.71059814 11.66600159 16.75567627 11.6799469 C14.48293004 11.71509246 12.21141155 11.76428996 9.93927002 11.82643127 C10.25873596 13.01913383 10.25873596 13.01913383 10.58465576 14.2359314 C12.58977195 21.72452684 14.59131719 29.21406314 16.5888443 36.70468616 C17.61595108 40.55577629 18.64444135 44.40648582 19.67608643 48.25636292 C20.67137327 51.97076181 21.66303491 55.68611104 22.6521759 59.40215111 C23.03044821 60.8206862 23.410032 62.23887224 23.79093933 63.65670204 C24.32366257 65.6405154 24.85173609 67.62551151 25.37872314 69.6108551 C25.68072632 70.74114639 25.98272949 71.87143768 26.29388428 73.03598022 C26.93927002 75.82643127 26.93927002 75.82643127 26.93927002 78.82643127 C24.62927002 78.82643127 22.31927002 78.82643127 19.93927002 78.82643127 C19.73517517 78.03795807 19.53108032 77.24948486 19.32080078 76.43711853 C17.39086742 68.9896136 15.45000285 61.54508384 13.49694443 54.1036129 C12.49335459 50.27821437 11.49395638 46.45182408 10.50421143 42.62281799 C9.54803988 38.92434033 8.58076251 35.2289293 7.60587311 31.53534317 C7.23675755 30.12905569 6.87158551 28.72172675 6.51052094 27.31335068 C6.00220916 25.33348653 5.47971311 23.35786581 4.95391846 21.38258362 C4.66079773 20.25895416 4.367677 19.13532471 4.06567383 17.97764587 C2.59643023 13.86730656 0.89104207 10.0317962 -2.92963314 7.67224407 C-9.19133318 5.18703273 -16.2685706 7.06661857 -22.5145874 8.7983551 C-23.30605667 9.00811478 -24.09752594 9.21787445 -24.91297913 9.43399048 C-27.50047023 10.1228372 -30.08327305 10.82770756 -32.66619873 11.53346252 C-34.47720771 12.02031918 -36.28843497 12.50636454 -38.09986877 12.99163818 C-41.88327371 14.00775723 -45.66451487 15.0314578 -49.4442749 16.06105042 C-54.27955603 17.37783701 -59.11889792 18.67888298 -63.9598341 19.9747057 C-67.69560968 20.97594186 -71.42957611 21.98378708 -75.16298866 22.99379539 C-76.94666773 23.47583647 -78.73079173 23.95623435 -80.51537132 24.4349308 C-83.01039976 25.10562636 -85.5029728 25.78477847 -87.99505615 26.46632385 C-89.0916304 26.75871948 -89.0916304 26.75871948 -90.21035767 27.05702209 C-95.22085956 28.44079504 -100.13193594 29.89763723 -103.87322998 33.63893127 C-106.98091761 39.36361901 -105.79779664 43.89996856 -104.06072998 49.82643127 C-99.86759003 48.5401944 -96.19890126 46.95242399 -92.37713623 44.80690002 C-91.29496826 44.20249084 -90.21280029 43.59808167 -89.09783936 42.97535706 C-87.95121826 42.32808655 -86.80459717 41.68081604 -85.62322998 41.01393127 C-84.42751487 40.34405404 -83.23154811 39.67462581 -82.03533936 39.00563049 C-76.10373094 35.68397744 -70.18814492 32.33418306 -64.27557373 28.97877502 C-63.22619629 28.38363098 -62.17681885 27.78848694 -61.09564209 27.17530823 C-59.10642737 26.04540354 -57.11889406 24.91253241 -55.13323975 23.77638245 C-54.24306152 23.26953918 -53.3528833 22.76269592 -52.43572998 22.24049377 C-51.65971436 21.79657288 -50.88369873 21.35265198 -50.08416748 20.89527893 C-44.94298756 18.179535 -39.73890815 18.26350844 -34.06072998 18.82643127 C-24.97626237 22.94015246 -20.41528178 33.48108863 -15.99822998 41.88893127 C-10.82196825 51.60683762 -5.49235049 61.22165701 -0.02337646 70.77784729 C0.75670776 72.14574402 0.75670776 72.14574402 1.55255127 73.54127502 C2.01443848 74.34685852 2.47632568 75.15244202 2.95220947 75.98243713 C3.93927002 77.82643127 3.93927002 77.82643127 3.93927002 78.82643127 C1.29927002 78.82643127 -1.34072998 78.82643127 -4.06072998 78.82643127 C-4.4878125 78.04743469 -4.91489502 77.26843811 -5.35491943 76.46583557 C-15.7413431 57.51501754 -15.7413431 57.51501754 -26.37322998 38.70143127 C-27.02835571 37.55033875 -27.02835571 37.55033875 -27.69671631 36.37599182 C-28.10172363 35.67643372 -28.50673096 34.97687561 -28.92401123 34.25611877 C-29.26730469 33.66041077 -29.61059814 33.06470276 -29.96429443 32.45094299 C-32.02745187 29.39410719 -33.51853207 28.00716391 -37.06072998 26.82643127 C-45.45943458 25.56515899 -51.31675657 29.78078025 -58.37322998 33.88893127 C-59.65822459 34.62022151 -60.944213 35.34976799 -62.23114014 36.07765198 C-64.88043613 37.57840604 -67.5247697 39.08739263 -70.16571045 40.60279846 C-74.94217891 43.33791589 -79.75824044 45.9987737 -84.57684326 48.65895081 C-88.99363301 51.09816933 -93.39987655 53.55611378 -97.80633545 56.01393127 C-100.00432639 57.23807867 -102.2039137 58.45936348 -104.40496826 59.67799377 C-107.60621495 61.45044077 -110.80267103 63.23125537 -113.99822998 65.01393127 C-114.95777588 65.5426886 -115.91732178 66.07144592 -116.90594482 66.6162262 C-117.79104736 67.11227356 -118.6761499 67.60832092 -119.58807373 68.11940002 C-120.35885254 68.54761047 -121.12963135 68.97582092 -121.92376709 69.41700745 C-125.71125461 71.91502704 -128.2721345 74.65304183 -130.06072998 78.82643127 C-132.37072998 78.82643127 -134.68072998 78.82643127 -137.06072998 78.82643127 C-136.59975705 73.98621552 -135.41884857 70.36045132 -132.06072998 66.82643127 C-128.62615464 64.42252071 -124.99768074 62.43973362 -121.31072998 60.45143127 C-120.32717529 59.90615784 -119.34362061 59.3608844 -118.33026123 58.79908752 C-115.91385714 57.46185419 -113.49096842 56.13830174 -111.06072998 54.82643127 C-111.2000293 54.24707825 -111.33932861 53.66772522 -111.48284912 53.07081604 C-113.33423309 45.11602256 -115.21794176 36.69639419 -110.87322998 29.26393127 C-106.94400452 23.46364608 -100.82104362 21.98241399 -94.40594482 20.2827301 C-93.54506256 20.04820633 -92.6841803 19.81368256 -91.79721069 19.572052 C-88.95749618 18.80103131 -86.11483317 18.04165029 -83.27166748 17.28346252 C-81.28726741 16.74994664 -79.30294441 16.21614404 -77.31869507 15.68206787 C-73.15910839 14.56467537 -68.99791107 13.45352686 -64.83563232 12.34620667 C-59.52261063 10.93180098 -54.21507751 9.49788895 -48.9087429 8.05862904 C-44.81039725 6.95014442 -40.7087415 5.85432864 -36.60606766 4.76198387 C-34.64904711 4.23888969 -32.69318399 3.71144398 -30.73856735 3.17943764 C-6.14579719 -3.49998081 -6.14579719 -3.49998081 0 0 Z " fill="#4AA086" transform="translate(168.06072998046875,4.1735687255859375)"/>
<path d="M0 0 C79.2 0 158.4 0 240 0 C240 1.65 240 3.3 240 5 C160.8 5 81.6 5 0 5 C0 3.35 0 1.7 0 0 Z " fill="#469A83" transform="translate(16,173)"/>
<path d="M0 0 C2.69990662 1.79993774 4.5418865 3.083773 6 6 C6.2588935 10.51260305 6.27104714 15.02900557 6.29516602 19.5480957 C6.31235651 21.79375573 6.35624 24.03793433 6.40039062 26.28320312 C6.41052001 27.71613503 6.41903535 29.14907943 6.42578125 30.58203125 C6.44036377 31.88374268 6.45494629 33.1854541 6.4699707 34.52661133 C5.92567643 38.54929945 4.83894204 40.16039736 2 43 C-0.3959626 44.1979813 -1.717047 44.10969297 -4.375 43.9375 C-5.14585937 43.90527344 -5.91671875 43.87304688 -6.7109375 43.83984375 C-10.2573644 42.5386803 -11.19266447 40.23885371 -13 37 C-13.50170898 33.64428711 -13.50170898 33.64428711 -13.49609375 30.02734375 C-13.49673828 28.71572266 -13.49738281 27.40410156 -13.49804688 26.05273438 C-13.48765381 25.37686279 -13.47726074 24.70099121 -13.46655273 24.00463867 C-13.43752287 21.93912705 -13.44597447 19.87617629 -13.45898438 17.81054688 C-13.3873053 6.6010419 -13.3873053 6.6010419 -10 2 C-6.79062591 -0.32402951 -3.88493979 -0.47570691 0 0 Z M-4 7 C-5.30661495 8.08108449 -5.30661495 8.08108449 -5.11352539 10.68383789 C-5.10828857 11.85164795 -5.10305176 13.01945801 -5.09765625 14.22265625 C-5.09443359 15.48271484 -5.09121094 16.74277344 -5.08789062 18.04101562 C-5.07953403 19.38151109 -5.07106907 20.72200588 -5.0625 22.0625 C-5.0574866 23.40689942 -5.05292342 24.7513006 -5.04882812 26.09570312 C-5.03699488 29.39717941 -5.02050971 32.69856803 -5 36 C-4.34 36.33 -3.68 36.66 -3 37 C-2.34 36.67 -1.68 36.34 -1 36 C-1 26.76 -1 17.52 -1 8 C-1.99 7.67 -2.98 7.34 -4 7 Z " fill="#FFFFFF" transform="translate(250,113)"/>
<path d="M0 0 C4.63235294 2.26470588 4.63235294 2.26470588 6 5 C6.13415472 7.6723621 6.04318541 10.32250488 6 13 C3.69 13 1.38 13 -1 13 C-1.33 11.35 -1.66 9.7 -2 8 C-2.66 8 -3.32 8 -4 8 C-4 17.24 -4 26.48 -4 36 C-3.34 36 -2.68 36 -2 36 C-1.67 33.69 -1.34 31.38 -1 29 C1.31 29 3.62 29 6 29 C6.62805304 38.14166085 6.62805304 38.14166085 4.125 41.5625 C0.52449228 43.99813758 -1.62788711 44.34291082 -6 44 C-10.63235294 41.73529412 -10.63235294 41.73529412 -12 39 C-12.13507003 36.4934729 -12.21257842 34.01596679 -12.23828125 31.5078125 C-12.246353 30.76546356 -12.25442474 30.02311462 -12.26274109 29.25827026 C-12.27657717 27.68636407 -12.28730146 26.11442788 -12.29516602 24.54248047 C-12.31238512 22.1410217 -12.3562728 19.74093782 -12.40039062 17.33984375 C-12.41051729 15.81251012 -12.41903348 14.28516479 -12.42578125 12.7578125 C-12.44328934 12.04102325 -12.46079742 11.32423401 -12.47883606 10.58572388 C-12.46381835 7.126171 -12.26425179 5.33661654 -10.09838867 2.57763672 C-6.57353359 -0.07246375 -4.41075676 -0.34594171 0 0 Z " fill="#FFFFFF" transform="translate(28,113)"/>
<path d="M0 0 C5.28 0 10.56 0 16 0 C16 2.31 16 4.62 16 7 C13.36 7 10.72 7 8 7 C8 12.61 8 18.22 8 24 C9.65 24 11.3 24 13 24 C13 26.31 13 28.62 13 31 C11.35 31 9.7 31 8 31 C8 32.98 8 34.96 8 37 C10.64 37 13.28 37 16 37 C16 39.31 16 41.62 16 44 C10.72 44 5.44 44 0 44 C0 29.48 0 14.96 0 0 Z " fill="#FFFFFF" transform="translate(64,113)"/>
<path d="M0 0 C2.31 0 4.62 0 7 0 C7 12.21 7 24.42 7 37 C9.64 37 12.28 37 15 37 C15 39.31 15 41.62 15 44 C10.05 44 5.1 44 0 44 C0 29.48 0 14.96 0 0 Z " fill="#FFFFFF" transform="translate(155,113)"/>
<path d="M0 0 C2.31 0 4.62 0 7 0 C7 12.21 7 24.42 7 37 C9.64 37 12.28 37 15 37 C15 39.31 15 41.62 15 44 C10.05 44 5.1 44 0 44 C0 29.48 0 14.96 0 0 Z " fill="#FFFFFF" transform="translate(110,113)"/>
<path d="M0 0 C2.64 0 5.28 0 8 0 C8 14.52 8 29.04 8 44 C5.36 44 2.72 44 0 44 C0 29.48 0 14.96 0 0 Z " fill="#FFFFFF" transform="translate(200,113)"/>
<path d="M0 0 C21.78 0 43.56 0 66 0 C66 1.65 66 3.3 66 5 C44.22 5 22.44 5 0 5 C0 3.35 0 1.7 0 0 Z " fill="#5AB57D" transform="translate(190,90)"/>
<path d="M0 0 C21.78 0 43.56 0 66 0 C66 1.65 66 3.3 66 5 C44.22 5 22.44 5 0 5 C0 3.35 0 1.7 0 0 Z " fill="#216162" transform="translate(16,90)"/>
<path d="M0 0 C3.4375 0.375 3.4375 0.375 5.4375 2.375 C6.26752176 8.25838954 5.07447206 13.74790856 3.4375 19.375 C-9.40716019 18.53033981 -9.40716019 18.53033981 -13.5625 14.375 C-13.75 10.9375 -13.75 10.9375 -13.5625 7.375 C-11.5625 5.375 -11.5625 5.375 -9.125 5 C-6.40497781 4.64287672 -6.40497781 4.64287672 -5.1875 2.3125 C-3.5625 0.375 -3.5625 0.375 0 0 Z " fill="#59B9A1" transform="translate(161.5625,14.625)"/>
<path d="M0 0 C2.3125 1.25 2.3125 1.25 3.3125 2.25 C3.35313832 3.91617115 3.355221 5.58388095 3.3125 7.25 C4.6325 7.58 5.9525 7.91 7.3125 8.25 C8 11.0625 8 11.0625 8.3125 14.25 C6.52470342 16.84230504 5.35247185 17.23667605 2.3125 18.25 C2.6425 18.91 2.9725 19.57 3.3125 20.25 C0.0125 20.25 -3.2875 20.25 -6.6875 20.25 C-6.3575 19.59 -6.0275 18.93 -5.6875 18.25 C-6.491875 18.04375 -7.29625 17.8375 -8.125 17.625 C-10.6875 16.25 -10.6875 16.25 -11.625 13.3125 C-11.6875 10.25 -11.6875 10.25 -9.6875 7.25 C-8.6975 7.25 -7.7075 7.25 -6.6875 7.25 C-6.77 6.486875 -6.8525 5.72375 -6.9375 4.9375 C-6.6875 2.25 -6.6875 2.25 -5 0.3125 C-2.6875 -0.75 -2.6875 -0.75 0 0 Z " fill="#5AB689" transform="translate(197.6875,20.75)"/>
<path d="M0 0 C1.58467728 0.28427417 3.1677057 0.57774818 4.75 0.875 C6.07257813 1.11863281 6.07257813 1.11863281 7.421875 1.3671875 C9.92854052 1.98245995 11.84745923 2.57631051 14 4 C14.9375 7.4375 14.9375 7.4375 15 11 C13.5625 12.9375 13.5625 12.9375 12 14 C12.66 14.66 13.32 15.32 14 16 C7.25 20 7.25 20 5 20 C4.67 19.34 4.34 18.68 4 18 C2.00116131 17.65977214 0.00109278 17.32670903 -2 17 C-2.66 16.34 -3.32 15.68 -4 15 C-3.71145081 9.32519935 -2.44406014 5.10064726 0 0 Z " fill="#52B1A9" transform="translate(122,35)"/>
<path d="M0 0 C0.66 0 1.32 0 2 0 C3.98 4.29 5.96 8.58 8 13 C-0.625 19.75 -0.625 19.75 -4 22 C-5.03290841 20.06891037 -6.05098672 18.129882 -7.0625 16.1875 C-7.91521484 14.56908203 -7.91521484 14.56908203 -8.78515625 12.91796875 C-10 10 -10 10 -9 7 C-7.02678947 5.6273318 -5.02456848 4.29572383 -3 3 C-2.4225 2.4225 -1.845 1.845 -1.25 1.25 C-0.8375 0.8375 -0.425 0.425 0 0 Z " fill="#5BB478" transform="translate(231,43)"/>
<path d="M0 0 C3.3 0 6.6 0 10 0 C10 0.33 10 0.66 10 1 C7.36 1 4.72 1 2 1 C2 2.32 2 3.64 2 5 C4.31 5 6.62 5 9 5 C9 5.66 9 6.32 9 7 C6.69 7 4.38 7 2 7 C2 7.99 2 8.98 2 10 C4.64 10 7.28 10 10 10 C10 10.33 10 10.66 10 11 C6.7 11 3.4 11 0 11 C0 7.37 0 3.74 0 0 Z " fill="#FFFFFF" transform="translate(146,88)"/>
<path d="M0 0 C3.375 -0.125 3.375 -0.125 7 0 C7.66 0.66 8.32 1.32 9 2 C8.70764733 4.33882138 8.37400786 6.67284 8 9 C8.33 9.66 8.66 10.32 9 11 C6.07120629 10.37240135 3.63904371 9.41377341 1 8 C0.67 8.99 0.34 9.98 0 11 C0 7.37 0 3.74 0 0 Z M1 1 C1 2.98 1 4.96 1 7 C2.65 6.67 4.3 6.34 6 6 C6 4.68 6 3.36 6 2 C4.35 1.67 2.7 1.34 1 1 Z " fill="#FFFFFF" transform="translate(119,88)"/>
<path d="M0 0 C2.97 0 5.94 0 9 0 C9 0.33 9 0.66 9 1 C6.36 1 3.72 1 1 1 C1 2.32 1 3.64 1 5 C3.64 5 6.28 5 9 5 C9 5.66 9 6.32 9 7 C6.36 7 3.72 7 1 7 C1 7.99 1 8.98 1 10 C3.64 10 6.28 10 9 10 C9 10.33 9 10.66 9 11 C6.03 11 3.06 11 0 11 C0 7.37 0 3.74 0 0 Z " fill="#FFFFFF" transform="translate(175,88)"/>
<path d="M0 0 C2.97 0 5.94 0 9 0 C9 0.33 9 0.66 9 1 C6.69 1 4.38 1 2 1 C2 2.32 2 3.64 2 5 C4.31 5 6.62 5 9 5 C9 5.66 9 6.32 9 7 C6.69 7 4.38 7 2 7 C2 8.32 2 9.64 2 11 C1.34 11 0.68 11 0 11 C0 7.37 0 3.74 0 0 Z " fill="#FFFFFF" transform="translate(90,88)"/>
</svg>
