<?xml version="1.0" encoding="UTF-8"?>
<svg version="1.1" xmlns="http://www.w3.org/2000/svg" width="150" height="150">
<path d="M0 0 C2.02696723 0.3004041 2.02696723 0.3004041 4.23828125 0.2734375 C5.05876953 0.2940625 5.87925781 0.3146875 6.72460938 0.3359375 C8.43805282 0.3618008 10.15162785 0.38013621 11.86523438 0.390625 C17.37567577 0.54572734 20.64873873 1.28962217 25 5 C27.1519437 8.22791555 27.20086443 9.28400809 27 13 C28.16015625 13.16435547 28.16015625 13.16435547 29.34375 13.33203125 C43.94306458 15.55445166 43.94306458 15.55445166 49.5 20 C54.21616395 29.4323279 49.52116575 41.39931078 47 51 C45.35 51 43.7 51 42 51 C42.40638473 47.01742962 42.95111762 43.21508246 43.83984375 39.3046875 C43.98832764 38.64863525 44.13681152 37.99258301 44.28979492 37.31665039 C44.73665149 35.37063152 45.20395798 33.42934382 45.671875 31.48828125 C46.27335635 28.02599841 46.27335635 28.02599841 44.80859375 25.1484375 C42.95971435 22.95214447 42.00169933 22.16889816 39.3125 21.3125 C38.37857422 20.99732422 38.37857422 20.99732422 37.42578125 20.67578125 C33.96950167 19.71292075 30.4807665 18.87019162 27 18 C27 28.89 27 39.78 27 51 C25.35 51 23.7 51 22 51 C22.02094727 49.8447583 22.04189453 48.6895166 22.06347656 47.49926758 C22.13600398 43.20365852 22.18184593 38.90810335 22.21972656 34.61206055 C22.23981305 32.75454602 22.26708778 30.89709449 22.30175781 29.03979492 C22.35040737 26.36621537 22.37299809 23.69347344 22.390625 21.01953125 C22.41127014 20.19226028 22.43191528 19.36498932 22.45318604 18.51264954 C22.45465801 14.71032437 22.21603419 12.42265028 20.45996094 8.98706055 C17.18548438 6.34206604 14.29865222 6.22194033 10.25 6.1875 C9.55261719 6.16236328 8.85523437 6.13722656 8.13671875 6.11132812 C6.42508051 6.05271038 4.7124814 6.02342947 3 6 C3.33322266 7.22106445 3.66644531 8.44212891 4.00976562 9.70019531 C5.24483015 14.23121262 6.47326562 18.76400502 7.69970703 23.29736328 C8.23142768 25.25911724 8.76494444 27.2203853 9.30029297 29.18115234 C10.06951135 31.99971691 10.83225191 34.81996623 11.59375 37.640625 C11.83436157 38.51680481 12.07497314 39.39298462 12.32287598 40.29571533 C12.65321838 41.52653839 12.65321838 41.52653839 12.99023438 42.78222656 C13.18564819 43.50170471 13.38106201 44.22118286 13.58239746 44.96246338 C14 47 14 47 14 51 C12.35 50.67 10.7 50.34 9 50 C8.68248779 48.78417236 8.36497559 47.56834473 8.0378418 46.31567383 C6.85484204 41.79420028 5.66151383 37.27550601 4.46508789 32.75756836 C3.94925498 30.80388159 3.43620504 28.84945777 2.92602539 26.89428711 C2.19111412 24.07987032 1.44614961 21.26827866 0.69921875 18.45703125 C0.47409103 17.58601273 0.24896332 16.7149942 0.01701355 15.81758118 C-1.14883211 11.46968213 -2.28396822 7.67677395 -5 4 C-11.60194202 0.69902899 -22.55084011 5.24481933 -29.2109375 7.0546875 C-30.34149567 7.35690216 -31.47205383 7.65911682 -32.63687134 7.9704895 C-35.0094555 8.60711149 -37.38097666 9.24770724 -39.75146484 9.89208984 C-43.3818337 10.87685369 -47.01671861 11.84343993 -50.65234375 12.80859375 C-52.96383418 13.43120672 -55.27504255 14.05486798 -57.5859375 14.6796875 C-58.67135834 14.9672995 -59.75677917 15.2549115 -60.87509155 15.55123901 C-61.88359161 15.82807526 -62.89209167 16.1049115 -63.93115234 16.39013672 C-64.81588226 16.62916718 -65.70061218 16.86819763 -66.6121521 17.11447144 C-69.21866599 18.08109184 -70.96586896 19.10603315 -73 21 C-73.99510849 24.46537413 -73.99510849 24.46537413 -74 28 C-73.34 28.99 -72.68 29.98 -72 31 C-68.24817068 28.98254981 -64.49873737 26.96068929 -60.75 24.9375 C-59.09786499 24.04756348 -59.09786499 24.04756348 -57.41235352 23.13964844 C-51.83996709 20.12603192 -46.33977788 17.05794166 -40.9375 13.75 C-35.488814 10.54770209 -31.7285627 9.37769623 -25.4375 10.8125 C-22.29807778 12.36944571 -21.00660014 14.24918757 -19.27734375 17.2578125 C-18.76018799 18.15185791 -18.24303223 19.04590332 -17.71020508 19.96704102 C-17.1458374 20.96791748 -16.58146973 21.96879395 -16 23 C-15.37697998 24.09948975 -14.75395996 25.19897949 -14.11206055 26.33178711 C-12.44153478 29.29255025 -10.78692917 32.26189866 -9.13867188 35.23510742 C-8.10831422 37.09258021 -7.07381619 38.94770762 -6.0390625 40.80273438 C-5.3825661 41.98423812 -4.72630678 43.16587364 -4.0703125 44.34765625 C-3.48008301 45.40992432 -2.88985352 46.47219238 -2.28173828 47.56665039 C-1 50 -1 50 -1 51 C-2.98 51 -4.96 51 -7 51 C-7.3623877 50.3201001 -7.72477539 49.6402002 -8.09814453 48.93969727 C-9.76901409 45.81140203 -11.44695296 42.68695063 -13.125 39.5625 C-13.97964844 37.95858398 -13.97964844 37.95858398 -14.8515625 36.32226562 C-20.26745887 24.8553738 -20.26745887 24.8553738 -29.00390625 16.27734375 C-32.84507418 15.92177279 -34.55084724 16.72183501 -37.9375 18.5625 C-38.52176758 18.87405029 -39.10603516 19.18560059 -39.70800781 19.5065918 C-41.82018314 20.64582966 -43.91003299 21.82051809 -46 23 C-46.85932129 23.48017578 -47.71864258 23.96035156 -48.60400391 24.45507812 C-53.47926587 27.18147134 -58.339156 29.93307132 -63.1875 32.70703125 C-66.89043212 34.81974335 -70.61262007 36.88183984 -74.375 38.88671875 C-75.6139502 39.55223755 -75.6139502 39.55223755 -76.87792969 40.23120117 C-78.41462303 41.05316446 -79.95668399 41.86520167 -81.50488281 42.6652832 C-85.71346274 44.93064105 -87.71058952 46.67052078 -90 51 C-92.6875 51.3125 -92.6875 51.3125 -95 51 C-95.4375 48.875 -95.4375 48.875 -95 46 C-90.80366077 40.95911451 -84.74257485 37.94290684 -79 35 C-79.10699219 34.13117188 -79.21398437 33.26234375 -79.32421875 32.3671875 C-80.28860029 23.0966811 -80.28860029 23.0966811 -79.0625 18.4375 C-73.55587524 11.92967074 -63.95640327 10.37456244 -56.06640625 8.29296875 C-54.83389633 7.96331619 -53.60138641 7.63366364 -52.33152771 7.29402161 C-49.73472471 6.60293321 -47.13722298 5.9158096 -44.5378418 5.23461914 C-41.22730238 4.36597398 -37.92325601 3.47493798 -34.62031651 2.57789135 C-31.43948874 1.71850372 -28.25261441 0.88214833 -25.06640625 0.04296875 C-23.89114883 -0.27775101 -22.71589142 -0.59847076 -21.50502014 -0.9289093 C-13.9641955 -2.87368576 -6.89300303 -4.59533535 0 0 Z " fill="#4AA086" transform="translate(97,51)"/>
<path d="M0 0 C2.375 -0.125 2.375 -0.125 5 0 C7 2 7 2 7.01171875 4.09375 C6.90472656 4.8878125 6.79773438 5.681875 6.6875 6.5 C6.58824219 7.2940625 6.48898438 8.088125 6.38671875 8.90625 C6 11 6 11 5 13 C3.56138706 12.91253716 2.12402492 12.80434652 0.6875 12.6875 C-0.11300781 12.62949219 -0.91351563 12.57148437 -1.73828125 12.51171875 C-4.4013248 11.9091994 -5.39869414 11.19126065 -7 9 C-6.6875 6.3125 -6.6875 6.3125 -6 4 C-4.35 3.67 -2.7 3.34 -1 3 C-0.67 2.01 -0.34 1.02 0 0 Z " fill="#59B9A1" transform="translate(86,56)"/>
<path d="M0 0 C1.65 0 3.3 0 5 0 C5.33 1.65 5.66 3.3 6 5 C6.99 5.33 7.98 5.66 9 6 C9 7.65 9 9.3 9 11 C8.01 11.33 7.02 11.66 6 12 C6 12.66 6 13.32 6 14 C-0.40818182 14.36272727 -0.40818182 14.36272727 -2.9375 12.8125 C-4.32851983 10.43958382 -4.21917317 8.70313576 -4 6 C-3.01 5.67 -2.02 5.34 -1 5 C-0.67 3.35 -0.34 1.7 0 0 Z " fill="#5AB689" transform="translate(109,60)"/>
<path d="M0 0 C3.3 0.99 6.6 1.98 10 3 C10 6 10 9 10 12 C7.31920844 13.75282525 6.13111361 14.01311136 2.875 13.6875 C0 13 0 13 -2 12 C-2.17835515 7.45194365 -1.99785435 4.1205746 0 0 Z " fill="#52B1A9" transform="translate(62,69)"/>
<path d="M0 0 C3 6.625 3 6.625 3 10 C0.41753857 11.90877584 -2.12754491 13.56377246 -5 15 C-5.67154933 13.71086513 -6.33708859 12.41859796 -7 11.125 C-7.37125 10.40570313 -7.7425 9.68640625 -8.125 8.9453125 C-9 7 -9 7 -9 5 C-7.5390625 3.7109375 -7.5390625 3.7109375 -5.625 2.375 C-4.99851563 1.92898437 -4.37203125 1.48296875 -3.7265625 1.0234375 C-2 0 -2 0 0 0 Z " fill="#5BB478" transform="translate(137,75)"/>
</svg>
